<svg id="Layer_5" data-name="Layer 5" xmlns="http://www.w3.org/2000/svg" viewBox="0 0 32 32"><defs><style>.cls-1{fill:#0077be;}</style></defs><title>icon_ping</title><path class="cls-1" d="M12,3H6A3,3,0,0,0,3,6v6a3,3,0,0,0,3,3H7V14H6a2,2,0,0,1-2-2V6A2,2,0,0,1,6,4h6a2,2,0,0,1,2,2v6a2,2,0,0,1-2,2H11v1h1a3,3,0,0,0,3-3V6A3,3,0,0,0,12,3Z"/><circle class="cls-1" cx="9" cy="12.5" r="1"/><circle class="cls-1" cx="9" cy="15.5" r="1"/><circle class="cls-1" cx="9" cy="18.5" r="1"/><circle class="cls-1" cx="13.5" cy="23" r="1"/><path class="cls-1" d="M19.5,29h6a3,3,0,0,0,3-3V20a3,3,0,0,0-3-3h-1v1h1a2,2,0,0,1,2,2v6a2,2,0,0,1-2,2h-6a2,2,0,0,1-2-2V20a2,2,0,0,1,2-2h1V17h-1a3,3,0,0,0-3,3v6A3,3,0,0,0,19.5,29Z"/><circle class="cls-1" cx="9" cy="23" r="2"/><circle class="cls-1" cx="22.5" cy="17" r="1"/><circle class="cls-1" cx="22.5" cy="14" r="1"/><circle class="cls-1" cx="18" cy="9.5" r="1"/><circle class="cls-1" cx="22.5" cy="9.5" r="2"/></svg>